<svg xmlns="http://www.w3.org/2000/svg" xmlns:xlink="http://www.w3.org/1999/xlink" contentStyleType="text/css" data-diagram-type="ACTIVITY" height="1605px" preserveAspectRatio="none" style="width:1164px;height:1605px;background:#FAFAF7;" version="1.1" viewBox="0 0 1164 1605" width="1164px" zoomAndPan="magnify"><?plantuml $version$?><defs/><g><rect fill="#FAFAF7" height="1605" style="stroke:none;stroke-width:1;" width="1164" x="0" y="0"/><g class="title" data-source-line="2"><text fill="#000000" font-family="sans-serif" font-size="14" font-weight="700" lengthAdjust="spacing" textLength="343.041" x="409.8867" y="33.1318">Crafty &#8212; CAD agent rendering and verification loop</text></g><ellipse cx="406.811" cy="62.0986" fill="#222222" rx="10" ry="10" style="stroke:#222222;stroke-width:1;"/><rect fill="#F1F1F1" height="68.2959" rx="6" ry="6" style="stroke:#181818;stroke-width:0.5;" width="274.4678" x="269.5771" y="92.0986"/><text fill="#000000" font-family="sans-serif" font-size="14" lengthAdjust="spacing" textLength="191.4404" x="279.5771" y="115.2305">Receive durable modeling task</text><text fill="#000000" font-family="sans-serif" font-size="14" lengthAdjust="spacing" textLength="254.4678" x="279.5771" y="131.3291">objective + input assets + measurements</text><text fill="#000000" font-family="sans-serif" font-size="14" lengthAdjust="spacing" textLength="219.8643" x="279.5771" y="147.4277">parent revision + requested outputs</text><rect fill="#F1F1F1" height="52.1973" rx="6" ry="6" style="stroke:#181818;stroke-width:0.5;" width="314.9229" x="249.3496" y="224.3945"/><text fill="#000000" font-family="sans-serif" font-size="14" lengthAdjust="spacing" textLength="226.4268" x="259.3496" y="247.5264">CAD agent revises FreeCAD Python</text><text fill="#000000" font-family="sans-serif" font-size="14" lengthAdjust="spacing" textLength="294.9229" x="259.3496" y="263.625">or requests more evidence of existing geometry</text><rect fill="#F1F1F1" height="52.1973" rx="6" ry="6" style="stroke:#181818;stroke-width:0.5;" width="272.9229" x="270.3496" y="296.5918"/><text fill="#000000" font-family="sans-serif" font-size="14" lengthAdjust="spacing" textLength="222.5439" x="280.3496" y="319.7236">Freeze source / geometry reference</text><text fill="#000000" font-family="sans-serif" font-size="14" lengthAdjust="spacing" textLength="252.9229" x="280.3496" y="335.8223">views + checks + requested output types</text><rect fill="#F1F1F1" height="36.0986" rx="6" ry="6" style="stroke:#181818;stroke-width:0.5;" width="279.9707" x="266.8257" y="368.7891"/><text fill="#000000" font-family="sans-serif" font-size="14" lengthAdjust="spacing" textLength="259.9707" x="276.8257" y="391.9209">Queue evaluation; lease bounded attempt</text><rect fill="#F1F1F1" height="68.2959" rx="6" ry="6" style="stroke:#181818;stroke-width:0.5;" width="283.0469" x="265.2876" y="424.8877"/><text fill="#000000" font-family="sans-serif" font-size="14" lengthAdjust="spacing" textLength="106.6064" x="275.2876" y="448.0195">Ensure geometry</text><text fill="#000000" font-family="sans-serif" font-size="14" lengthAdjust="spacing" textLength="263.0469" x="275.2876" y="464.1182">reuse live handle / restore native snapshot</text><text fill="#000000" font-family="sans-serif" font-size="14" lengthAdjust="spacing" textLength="204.6611" x="275.2876" y="480.2168">or build explicitly supplied source</text><polygon fill="#F1F1F1" points="342.6113,513.1836,471.0107,513.1836,483.0107,525.1836,471.0107,537.1836,342.6113,537.1836,330.6113,525.1836,342.6113,513.1836" style="stroke:#181818;stroke-width:0.5;stroke-linejoin:miter;stroke-miterlimit:10;"/><text fill="#000000" font-family="sans-serif" font-size="14" lengthAdjust="spacing" textLength="128.3994" x="342.6113" y="530.2661">Geometry available?</text><text fill="#000000" font-family="sans-serif" font-size="14" lengthAdjust="spacing" textLength="21.7861" x="308.8252" y="522.2168">yes</text><text fill="#000000" font-family="sans-serif" font-size="14" lengthAdjust="spacing" textLength="15.5723" x="483.0107" y="522.2168">no</text><rect fill="#F1F1F1" height="36.0986" rx="6" ry="6" style="stroke:#181818;stroke-width:0.5;" width="409.5117" x="16" y="547.1836"/><text fill="#000000" font-family="sans-serif" font-size="14" lengthAdjust="spacing" textLength="389.5117" x="26" y="570.3154">Pin immutable geometry handle; retain snapshot + provenance</text><rect fill="#F1F1F1" height="52.1973" rx="6" ry="6" style="stroke:#181818;stroke-width:0.5;" width="251.8955" x="94.8081" y="603.2822"/><text fill="#000000" font-family="sans-serif" font-size="14" lengthAdjust="spacing" textLength="161.0957" x="104.8081" y="626.4141">Render requested images</text><text fill="#000000" font-family="sans-serif" font-size="14" lengthAdjust="spacing" textLength="231.8955" x="104.8081" y="642.5127">compute requested numerical checks</text><rect fill="#F1F1F1" height="52.1973" rx="6" ry="6" style="stroke:#181818;stroke-width:0.5;" width="236.3301" x="102.5908" y="725.5288"/><text fill="#000000" font-family="sans-serif" font-size="14" lengthAdjust="spacing" textLength="186.751" x="112.5908" y="748.6606">Derive requested GLB / STEP</text><text fill="#000000" font-family="sans-serif" font-size="14" lengthAdjust="spacing" textLength="216.3301" x="112.5908" y="764.7593">from the same evaluated geometry</text><rect fill="#F1F1F1" height="36.0986" rx="6" ry="6" style="stroke:#181818;stroke-width:0.5;" width="174.8682" x="133.3218" y="810.1768"/><text fill="#000000" font-family="sans-serif" font-size="14" lengthAdjust="spacing" textLength="154.8682" x="143.3218" y="833.3086">Validate export if present</text><polygon fill="#F1F1F1" points="129.3184,675.4795,312.1934,675.4795,324.1934,687.4795,312.1934,699.4795,129.3184,699.4795,117.3184,687.4795,129.3184,675.4795" style="stroke:#181818;stroke-width:0.5;stroke-linejoin:miter;stroke-miterlimit:10;"/><text fill="#000000" font-family="sans-serif" font-size="14" lengthAdjust="spacing" textLength="21.7861" x="224.7559" y="712.6113">yes</text><text fill="#000000" font-family="sans-serif" font-size="14" lengthAdjust="spacing" textLength="182.875" x="129.3184" y="692.562">Preview or export requested?</text><polygon fill="#F1F1F1" points="220.7559,866.2754,232.7559,878.2754,220.7559,890.2754,208.7559,878.2754,220.7559,866.2754" style="stroke:#181818;stroke-width:0.5;stroke-linejoin:miter;stroke-miterlimit:10;"/><rect fill="#F1F1F1" height="52.1973" rx="6" ry="6" style="stroke:#181818;stroke-width:0.5;" width="340.1611" x="50.6753" y="910.2754"/><text fill="#000000" font-family="sans-serif" font-size="14" lengthAdjust="spacing" textLength="203.4307" x="60.6753" y="933.4072">Record each artifact's availability</text><text fill="#000000" font-family="sans-serif" font-size="14" lengthAdjust="spacing" textLength="320.1611" x="60.6753" y="949.5059">and each check's measured / pass / fail / error state</text><rect fill="#F1F1F1" height="36.0986" rx="6" ry="6" style="stroke:#181818;stroke-width:0.5;" width="389.6738" x="25.9189" y="982.4727"/><text fill="#000000" font-family="sans-serif" font-size="14" lengthAdjust="spacing" textLength="369.6738" x="35.9189" y="1005.6045">Release query pin; keep geometry for subsequent evidence</text><rect fill="#F1F1F1" height="36.0986" rx="6" ry="6" style="stroke:#181818;stroke-width:0.5;" width="294.709" x="445.5117" y="547.1836"/><text fill="#000000" font-family="sans-serif" font-size="14" lengthAdjust="spacing" textLength="274.709" x="455.5117" y="570.3154">Retain error report and available diagnostics</text><polygon fill="#F1F1F1" points="406.811,1024.5713,418.811,1036.5713,406.811,1048.5713,394.811,1036.5713,406.811,1024.5713" style="stroke:#181818;stroke-width:0.5;stroke-linejoin:miter;stroke-miterlimit:10;"/><rect fill="#F1F1F1" height="36.0986" rx="6" ry="6" style="stroke:#181818;stroke-width:0.5;" width="260.085" x="276.7686" y="1068.5713"/><text fill="#000000" font-family="sans-serif" font-size="14" lengthAdjust="spacing" textLength="240.085" x="286.7686" y="1091.7031">Persist evaluation outcome + evidence</text><rect fill="#F1F1F1" height="52.1973" rx="6" ry="6" style="stroke:#181818;stroke-width:0.5;" width="264.3164" x="274.6528" y="1124.6699"/><text fill="#000000" font-family="sans-serif" font-size="14" lengthAdjust="spacing" textLength="244.3164" x="284.6528" y="1147.8018">Local MCP materializes completed files</text><text fill="#000000" font-family="sans-serif" font-size="14" lengthAdjust="spacing" textLength="215.5439" x="284.6528" y="1163.9004">inside the CAD session workspace</text><rect fill="#F1F1F1" height="36.0986" rx="6" ry="6" style="stroke:#181818;stroke-width:0.5;" width="342.1777" x="235.7222" y="1196.8672"/><text fill="#000000" font-family="sans-serif" font-size="14" lengthAdjust="spacing" textLength="322.1777" x="245.7222" y="1219.999">CAD agent opens images and reads measurements</text><path d="M594.5776,1242.9658 L594.5776,1276.1631 L574.5776,1280.1631 L594.5776,1284.1631 L594.5776,1317.3604 A0,0 0 0 0 594.5776,1317.3604 L993.7827,1317.3604 A0,0 0 0 0 993.7827,1317.3604 L993.7827,1252.9658 L983.7827,1242.9658 L594.5776,1242.9658 A0,0 0 0 0 594.5776,1242.9658" fill="#FFF3CD" style="stroke:#BC984A;stroke-width:0.5;"/><path d="M983.7827,1242.9658 L983.7827,1252.9658 L993.7827,1252.9658 L983.7827,1242.9658" fill="#FFF3CD" style="stroke:#BC984A;stroke-width:0.5;"/><text fill="#000000" font-family="sans-serif" font-size="14" lengthAdjust="spacing" textLength="329.5195" x="600.5776" y="1261.0977">A publication may contain PNG + metrics JSON only.</text><text fill="#000000" font-family="sans-serif" font-size="14" lengthAdjust="spacing" textLength="290.2539" x="600.5776" y="1277.1963">Source revision, evaluation, artifact availability,</text><text fill="#000000" font-family="sans-serif" font-size="14" lengthAdjust="spacing" textLength="378.2051" x="600.5776" y="1293.2949">check outcomes, and published results are separate records.</text><text fill="#000000" font-family="sans-serif" font-size="14" lengthAdjust="spacing" textLength="343.1914" x="600.5776" y="1309.3936">Existing evidence stays available after a failed iteration.</text><rect fill="#F1F1F1" height="52.1973" rx="6" ry="6" style="stroke:#181818;stroke-width:0.5;" width="335.5332" x="239.0444" y="1254.0645"/><text fill="#000000" font-family="sans-serif" font-size="14" lengthAdjust="spacing" textLength="301.1709" x="249.0444" y="1277.1963">Explicitly publish selected evidence by local path</text><text fill="#000000" font-family="sans-serif" font-size="14" lengthAdjust="spacing" textLength="315.5332" x="249.0444" y="1293.2949">immutable result set linked to source revision + run</text><polygon fill="#F1F1F1" points="406.811,180.3945,418.811,192.3945,406.811,204.3945,394.811,192.3945,406.811,180.3945" style="stroke:#181818;stroke-width:0.5;stroke-linejoin:miter;stroke-miterlimit:10;"/><polygon fill="#F1F1F1" points="304.4702,1337.3604,509.1519,1337.3604,521.1519,1349.3604,509.1519,1361.3604,304.4702,1361.3604,292.4702,1349.3604,304.4702,1337.3604" style="stroke:#181818;stroke-width:0.5;stroke-linejoin:miter;stroke-miterlimit:10;"/><text fill="#000000" font-family="sans-serif" font-size="14" lengthAdjust="spacing" textLength="15.5723" x="410.811" y="1374.4922">no</text><text fill="#000000" font-family="sans-serif" font-size="14" lengthAdjust="spacing" textLength="204.6816" x="304.4702" y="1354.4429">Revise again within task budget?</text><text fill="#000000" font-family="sans-serif" font-size="14" lengthAdjust="spacing" textLength="21.7861" x="521.1519" y="1346.3936">yes</text><path d="M594.3965,1385.9922 L594.3965,1427.2388 L574.3965,1431.2388 L594.3965,1435.2388 L594.3965,1476.4854 A0,0 0 0 0 594.3965,1476.4854 L1143.8145,1476.4854 A0,0 0 0 0 1143.8145,1476.4854 L1143.8145,1395.9922 L1133.8145,1385.9922 L594.3965,1385.9922 A0,0 0 0 0 594.3965,1385.9922" fill="#FFF3CD" style="stroke:#BC984A;stroke-width:0.5;"/><path d="M1133.8145,1385.9922 L1133.8145,1395.9922 L1143.8145,1395.9922 L1133.8145,1385.9922" fill="#FFF3CD" style="stroke:#BC984A;stroke-width:0.5;"/><text fill="#000000" font-family="sans-serif" font-size="14" lengthAdjust="spacing" textLength="265.3438" x="600.3965" y="1404.124">CAD session and task remain recoverable.</text><text fill="#000000" font-family="sans-serif" font-size="14" lengthAdjust="spacing" textLength="301.4922" x="600.3965" y="1420.2227">Clarification is answered through the user's chat.</text><text fill="#000000" font-family="sans-serif" font-size="14" lengthAdjust="spacing" textLength="331.9258" x="600.3965" y="1436.3213">A final downloadable design includes STEP + source.</text><text fill="#000000" font-family="sans-serif" font-size="14" lengthAdjust="spacing" textLength="345.4609" x="600.3965" y="1452.4199">Extra views / metrics / exports reuse ensured geometry.</text><text fill="#000000" font-family="sans-serif" font-size="14" lengthAdjust="spacing" textLength="528.418" x="600.3965" y="1468.5186">An expired handle can be restored from its native snapshot without rebuilding source.</text><rect fill="#F1F1F1" height="52.1973" rx="6" ry="6" style="stroke:#181818;stroke-width:0.5;" width="335.1709" x="239.2256" y="1405.1401"/><text fill="#000000" font-family="sans-serif" font-size="14" lengthAdjust="spacing" textLength="315.1709" x="249.2256" y="1428.272">Return evidence / interpretation / available artifacts</text><text fill="#000000" font-family="sans-serif" font-size="14" lengthAdjust="spacing" textLength="285.6055" x="249.2256" y="1444.3706">or clarification request to conversational agent</text><ellipse cx="406.811" cy="1507.4854" fill="none" rx="11" ry="11" style="stroke:#222222;stroke-width:1;"/><ellipse cx="406.811" cy="1507.4854" fill="#222222" rx="6" ry="6" style="stroke:#222222;stroke-width:1;"/><line style="stroke:#465868;stroke-width:1.3;" x1="406.811" x2="406.811" y1="72.0986" y2="92.0986"/><polygon fill="#465868" points="402.811,82.0986,406.811,92.0986,410.811,82.0986,406.811,86.0986" style="stroke:#465868;stroke-width:1;stroke-linejoin:miter;stroke-miterlimit:10;"/><line style="stroke:#465868;stroke-width:1.3;" x1="406.811" x2="406.811" y1="276.5918" y2="296.5918"/><polygon fill="#465868" points="402.811,286.5918,406.811,296.5918,410.811,286.5918,406.811,290.5918" style="stroke:#465868;stroke-width:1;stroke-linejoin:miter;stroke-miterlimit:10;"/><line style="stroke:#465868;stroke-width:1.3;" x1="406.811" x2="406.811" y1="348.7891" y2="368.7891"/><polygon fill="#465868" points="402.811,358.7891,406.811,368.7891,410.811,358.7891,406.811,362.7891" style="stroke:#465868;stroke-width:1;stroke-linejoin:miter;stroke-miterlimit:10;"/><line style="stroke:#465868;stroke-width:1.3;" x1="406.811" x2="406.811" y1="404.8877" y2="424.8877"/><polygon fill="#465868" points="402.811,414.8877,406.811,424.8877,410.811,414.8877,406.811,418.8877" style="stroke:#465868;stroke-width:1;stroke-linejoin:miter;stroke-miterlimit:10;"/><line style="stroke:#465868;stroke-width:1.3;" x1="220.7559" x2="220.7559" y1="583.2822" y2="603.2822"/><polygon fill="#465868" points="216.7559,593.2822,220.7559,603.2822,224.7559,593.2822,220.7559,597.2822" style="stroke:#465868;stroke-width:1;stroke-linejoin:miter;stroke-miterlimit:10;"/><line style="stroke:#465868;stroke-width:1.3;" x1="220.7559" x2="220.7559" y1="777.7261" y2="810.1768"/><polygon fill="#465868" points="216.7559,800.1768,220.7559,810.1768,224.7559,800.1768,220.7559,804.1768" style="stroke:#465868;stroke-width:1;stroke-linejoin:miter;stroke-miterlimit:10;"/><line style="stroke:#465868;stroke-width:1.3;" x1="220.7559" x2="220.7559" y1="699.4795" y2="725.5288"/><polygon fill="#465868" points="216.7559,715.5288,220.7559,725.5288,224.7559,715.5288,220.7559,719.5288" style="stroke:#465868;stroke-width:1;stroke-linejoin:miter;stroke-miterlimit:10;"/><line style="stroke:#465868;stroke-width:1.3;" x1="324.1934" x2="348.9209" y1="687.4795" y2="687.4795"/><polygon fill="#465868" points="344.9209,777.1768,348.9209,787.1768,352.9209,777.1768,348.9209,781.1768" style="stroke:#465868;stroke-width:1.3;stroke-linejoin:miter;stroke-miterlimit:10;"/><line style="stroke:#465868;stroke-width:1.3;" x1="348.9209" x2="348.9209" y1="687.4795" y2="878.2754"/><line style="stroke:#465868;stroke-width:1.3;" x1="348.9209" x2="232.7559" y1="878.2754" y2="878.2754"/><polygon fill="#465868" points="242.7559,874.2754,232.7559,878.2754,242.7559,882.2754,238.7559,878.2754" style="stroke:#465868;stroke-width:1;stroke-linejoin:miter;stroke-miterlimit:10;"/><line style="stroke:#465868;stroke-width:1.3;" x1="220.7559" x2="220.7559" y1="846.2754" y2="866.2754"/><polygon fill="#465868" points="216.7559,856.2754,220.7559,866.2754,224.7559,856.2754,220.7559,860.2754" style="stroke:#465868;stroke-width:1;stroke-linejoin:miter;stroke-miterlimit:10;"/><line style="stroke:#465868;stroke-width:1.3;" x1="220.7559" x2="220.7559" y1="655.4795" y2="675.4795"/><polygon fill="#465868" points="216.7559,665.4795,220.7559,675.4795,224.7559,665.4795,220.7559,669.4795" style="stroke:#465868;stroke-width:1;stroke-linejoin:miter;stroke-miterlimit:10;"/><line style="stroke:#465868;stroke-width:1.3;" x1="220.7559" x2="220.7559" y1="890.2754" y2="910.2754"/><polygon fill="#465868" points="216.7559,900.2754,220.7559,910.2754,224.7559,900.2754,220.7559,904.2754" style="stroke:#465868;stroke-width:1;stroke-linejoin:miter;stroke-miterlimit:10;"/><line style="stroke:#465868;stroke-width:1.3;" x1="220.7559" x2="220.7559" y1="962.4727" y2="982.4727"/><polygon fill="#465868" points="216.7559,972.4727,220.7559,982.4727,224.7559,972.4727,220.7559,976.4727" style="stroke:#465868;stroke-width:1;stroke-linejoin:miter;stroke-miterlimit:10;"/><line style="stroke:#465868;stroke-width:1.3;" x1="330.6113" x2="220.7559" y1="525.1836" y2="525.1836"/><line style="stroke:#465868;stroke-width:1.3;" x1="220.7559" x2="220.7559" y1="525.1836" y2="547.1836"/><polygon fill="#465868" points="216.7559,537.1836,220.7559,547.1836,224.7559,537.1836,220.7559,541.1836" style="stroke:#465868;stroke-width:1;stroke-linejoin:miter;stroke-miterlimit:10;"/><line style="stroke:#465868;stroke-width:1.3;" x1="483.0107" x2="592.8662" y1="525.1836" y2="525.1836"/><line style="stroke:#465868;stroke-width:1.3;" x1="592.8662" x2="592.8662" y1="525.1836" y2="547.1836"/><polygon fill="#465868" points="588.8662,537.1836,592.8662,547.1836,596.8662,537.1836,592.8662,541.1836" style="stroke:#465868;stroke-width:1;stroke-linejoin:miter;stroke-miterlimit:10;"/><line style="stroke:#465868;stroke-width:1.3;" x1="220.7559" x2="220.7559" y1="1018.5713" y2="1036.5713"/><line style="stroke:#465868;stroke-width:1.3;" x1="220.7559" x2="394.811" y1="1036.5713" y2="1036.5713"/><polygon fill="#465868" points="384.811,1032.5713,394.811,1036.5713,384.811,1040.5713,388.811,1036.5713" style="stroke:#465868;stroke-width:1;stroke-linejoin:miter;stroke-miterlimit:10;"/><line style="stroke:#465868;stroke-width:1.3;" x1="592.8662" x2="592.8662" y1="583.2822" y2="1036.5713"/><line style="stroke:#465868;stroke-width:1.3;" x1="592.8662" x2="418.811" y1="1036.5713" y2="1036.5713"/><polygon fill="#465868" points="428.811,1032.5713,418.811,1036.5713,428.811,1040.5713,424.811,1036.5713" style="stroke:#465868;stroke-width:1;stroke-linejoin:miter;stroke-miterlimit:10;"/><line style="stroke:#465868;stroke-width:1.3;" x1="406.811" x2="406.811" y1="493.1836" y2="513.1836"/><polygon fill="#465868" points="402.811,503.1836,406.811,513.1836,410.811,503.1836,406.811,507.1836" style="stroke:#465868;stroke-width:1;stroke-linejoin:miter;stroke-miterlimit:10;"/><line style="stroke:#465868;stroke-width:1.3;" x1="406.811" x2="406.811" y1="1048.5713" y2="1068.5713"/><polygon fill="#465868" points="402.811,1058.5713,406.811,1068.5713,410.811,1058.5713,406.811,1062.5713" style="stroke:#465868;stroke-width:1;stroke-linejoin:miter;stroke-miterlimit:10;"/><line style="stroke:#465868;stroke-width:1.3;" x1="406.811" x2="406.811" y1="1104.6699" y2="1124.6699"/><polygon fill="#465868" points="402.811,1114.6699,406.811,1124.6699,410.811,1114.6699,406.811,1118.6699" style="stroke:#465868;stroke-width:1;stroke-linejoin:miter;stroke-miterlimit:10;"/><line style="stroke:#465868;stroke-width:1.3;" x1="406.811" x2="406.811" y1="1176.8672" y2="1196.8672"/><polygon fill="#465868" points="402.811,1186.8672,406.811,1196.8672,410.811,1186.8672,406.811,1190.8672" style="stroke:#465868;stroke-width:1;stroke-linejoin:miter;stroke-miterlimit:10;"/><line style="stroke:#465868;stroke-width:1.3;" x1="406.811" x2="406.811" y1="1232.9658" y2="1254.0645"/><polygon fill="#465868" points="402.811,1244.0645,406.811,1254.0645,410.811,1244.0645,406.811,1248.0645" style="stroke:#465868;stroke-width:1;stroke-linejoin:miter;stroke-miterlimit:10;"/><line style="stroke:#465868;stroke-width:1.3;" x1="406.811" x2="406.811" y1="204.3945" y2="224.3945"/><polygon fill="#465868" points="402.811,214.3945,406.811,224.3945,410.811,214.3945,406.811,218.3945" style="stroke:#465868;stroke-width:1;stroke-linejoin:miter;stroke-miterlimit:10;"/><line style="stroke:#465868;stroke-width:1.3;" x1="521.1519" x2="1005.7827" y1="1349.3604" y2="1349.3604"/><polygon fill="#465868" points="1001.7827,790.1768,1005.7827,780.1768,1009.7827,790.1768,1005.7827,786.1768" style="stroke:#465868;stroke-width:1.3;stroke-linejoin:miter;stroke-miterlimit:10;"/><line style="stroke:#465868;stroke-width:1.3;" x1="1005.7827" x2="1005.7827" y1="192.3945" y2="1349.3604"/><line style="stroke:#465868;stroke-width:1.3;" x1="1005.7827" x2="418.811" y1="192.3945" y2="192.3945"/><polygon fill="#465868" points="428.811,188.3945,418.811,192.3945,428.811,196.3945,424.811,192.3945" style="stroke:#465868;stroke-width:1;stroke-linejoin:miter;stroke-miterlimit:10;"/><line style="stroke:#465868;stroke-width:1.3;" x1="406.811" x2="406.811" y1="1306.2617" y2="1337.3604"/><polygon fill="#465868" points="402.811,1327.3604,406.811,1337.3604,410.811,1327.3604,406.811,1331.3604" style="stroke:#465868;stroke-width:1;stroke-linejoin:miter;stroke-miterlimit:10;"/><line style="stroke:#465868;stroke-width:1.3;" x1="406.811" x2="406.811" y1="160.3945" y2="180.3945"/><polygon fill="#465868" points="402.811,170.3945,406.811,180.3945,410.811,170.3945,406.811,174.3945" style="stroke:#465868;stroke-width:1;stroke-linejoin:miter;stroke-miterlimit:10;"/><line style="stroke:#465868;stroke-width:1.3;" x1="406.811" x2="406.811" y1="1361.3604" y2="1405.1401"/><polygon fill="#465868" points="402.811,1395.1401,406.811,1405.1401,410.811,1395.1401,406.811,1399.1401" style="stroke:#465868;stroke-width:1;stroke-linejoin:miter;stroke-miterlimit:10;"/><line style="stroke:#465868;stroke-width:1.3;" x1="406.811" x2="406.811" y1="1457.3374" y2="1496.4854"/><polygon fill="#465868" points="402.811,1486.4854,406.811,1496.4854,410.811,1486.4854,406.811,1490.4854" style="stroke:#465868;stroke-width:1;stroke-linejoin:miter;stroke-miterlimit:10;"/><g class="legend" data-source-line="50"><rect fill="none" height="42.1973" rx="6" ry="6" style="stroke:#000000;stroke-width:1;" width="602.1836" x="280.3154" y="1539.4854"/><text fill="#000000" font-family="sans-serif" font-size="14" lengthAdjust="spacing" textLength="575.832" x="285.3154" y="1557.6172">TRD-21-28: FreeCAD is the rendering and verification service; the CAD agent owns the loop.</text><text fill="#000000" font-family="sans-serif" font-size="14" lengthAdjust="spacing" textLength="592.1836" x="285.3154" y="1573.7158">Every commit checks attempt ownership and cancellation. Stop rejects unpublished late results.</text></g><?plantuml-src VLPDS-D44BtxLpGdihNPfDWJbHoea8HKKSjYaYrEkOobjZLaD2DcUkprdlWH_49-2Qzd95a1YfDjgJzVlzVjhwnlN6wPfEEUBspktKgiEARRQBPofB_--9DkR-x8xDWBHVOjH-jtP7nBUtpTsiQ83PvS2CDgbSH4MLqzSiDspzJcQ3O8reUMdRg9II_FFcn-uqRKu2rPFsGXan9Bmi-UJSeHjNX9ptumiQRTswH9tkBhxvcJS4iX2ppJzMeLUM0ZAwAhPQLmuKG_H6PzkZvA5pnInob4GbMH2NOj-uOfR8a_soHQvev3pnAFrnfKGtnXIY57c5tEBn5eor5zd_tUya7BRpfkNj9_r4bo73YLUBzapfhNk5oWkoQ7ffas8GFTbem8zuCKstklQCmfdtta35Eds7MOWTE28X9fAzuKJ9CtG-g2b6OtsReMZGtEDfZhaL8Uy1rfQZ-0ZyXkwUnXwihiZNKwjU_UA2iydHqvlO4LobbRJxRlivIfpa3KIgvHY1XOJ0K0XY66FNlZDL69y5WOj837zXWOHjs47Z3nuetFFGZM63UYMYDehMkTBXy8_Q6p4ENazU-YaVGESVRBq0yVlWTkJv_kryz-6qElFfHCFuy5DaiEb2Y_6cTRl9foef81q8DjrGITsUtKPHCYO3TDHn24tPf6lauJjDPPmIXLGiMYj8VN8_TRb3P04FZOmXuV72DQXRRa16Fb31e2_eC5YLwOXzD8jkgGDqbRXXmcbgixEpYU-V1c2bM6LdD0IjgQbZRpW5fhTZv06KsPGUrJsRdccA2O1PULxPYa2dkPykf3q3d-TBkc7ar42oY_G9qwTCUAzjOwPO7roTPjLBOE55nqVmZn9Grc37PIUHZOfv52fUZ8faslbaYLqOd_Gzuucpg4TjX1o3mlWCqHIqpB78nqA6NcEOQSdS1383p_0Xy9qpfOhgRiYvfyK1hRNIS5u9kQSboJlJcYQryWNtzyA1jFmF94Fpxz_962TyUBulRqElxv0kJpcLEl67LU_0gPfZ6ayuBAs3EtOol02kiYCTQhAP9JjgQQztxQWJCkuDqnBUY0km05cq9E5J1-bR8kAZTA_zDIfaC78pfxBEiOKzE-3rOwVEWjm7vgTonGhKrLi-fUsQbdH7BqfqekSIsGRT0zKz2yN9OrOfBAtckSMHodKVawDu2FkvNASyowyEXwzMfcI-OfVALGq4bhLwpWhncrtzjNQQoIC1rODInT37dN5IfZPKVek-cCgDCDsAwvst3mBfYsYeoJtI54lSUfB2Umez9ClUu_IpHK3ytbp9hBSHibgfU1VLqXqo8e-RmQMNqytep6UDhmT3YWFjs15a7-SKBAgC0bM9P3ehoOAff7ZHYu_8vt-cGJH4AFf9yUxzwz_-RT-s-lvXiCU1ID__aJ0Pps5YgV5y0eyuElhledes2nrxK7XlTMffixdaqrndmxEvJmZTuUvof1wGcb8h_--qYK_KaNhkgWYAEqLjlv6m00?></g></svg>