<svg xmlns="http://www.w3.org/2000/svg" xmlns:xlink="http://www.w3.org/1999/xlink" contentStyleType="text/css" data-diagram-type="STATE" height="1109px" preserveAspectRatio="none" style="width:1569px;height:1109px;background:#FAFAF7;" version="1.1" viewBox="0 0 1569 1109" width="1569px" zoomAndPan="magnify"><?plantuml $version$?><defs/><g><rect fill="#FAFAF7" height="1109" style="stroke:none;stroke-width:1;" width="1569" x="0" y="0"/><g class="title" data-source-line="2"><text fill="#000000" font-family="sans-serif" font-size="14" font-weight="700" lengthAdjust="spacing" textLength="306.4961" x="628.0862" y="23.1318">Crafty &#8212; prompt turn ownership and recovery</text></g><g class="entity" data-qualified-name="Accepted" data-source-line="5" id="ent0001"><rect fill="#EAF2F8" height="52.1973" rx="6" ry="6" style="stroke:#53748D;stroke-width:0.5;" width="239.0713" x="7" y="124.0986"/><line style="stroke:#53748D;stroke-width:0.5;" x1="7" x2="246.0713" y1="166.2959" y2="166.2959"/><text fill="#000000" font-family="sans-serif" font-size="14" lengthAdjust="spacing" textLength="58.3721" x="17" y="142.2305">Accepted</text><text fill="#000000" font-family="sans-serif" font-size="14" lengthAdjust="spacing" textLength="219.0713" x="17" y="158.3291">message + durable dispatch record</text></g><g class="entity" data-qualified-name="Dispatching" data-source-line="6" id="ent0002"><rect fill="#EAF2F8" height="52.1973" rx="6" ry="6" style="stroke:#53748D;stroke-width:0.5;" width="196.6543" x="28.21" y="257.3386"/><line style="stroke:#53748D;stroke-width:0.5;" x1="28.21" x2="224.8643" y1="299.5359" y2="299.5359"/><text fill="#000000" font-family="sans-serif" font-size="14" lengthAdjust="spacing" textLength="73.1514" x="38.21" y="275.4705">Dispatching</text><text fill="#000000" font-family="sans-serif" font-size="14" lengthAdjust="spacing" textLength="176.6543" x="38.21" y="291.5691">per-chat ownership acquired</text></g><g class="entity" data-qualified-name="Running" data-source-line="7" id="ent0003"><rect fill="#EAF2F8" height="52.1973" rx="6" ry="6" style="stroke:#53748D;stroke-width:0.5;" width="182.6406" x="518.22" y="390.5886"/><line style="stroke:#53748D;stroke-width:0.5;" x1="518.22" x2="700.8606" y1="432.7859" y2="432.7859"/><text fill="#000000" font-family="sans-serif" font-size="14" lengthAdjust="spacing" textLength="52.1514" x="528.22" y="408.7205">Running</text><text fill="#000000" font-family="sans-serif" font-size="14" lengthAdjust="spacing" textLength="162.6406" x="528.22" y="424.8191">one active session/prompt</text></g><g class="entity" data-qualified-name="Permission" data-source-line="8" id="ent0004"><rect fill="#EAF2F8" height="50" rx="6" ry="6" style="stroke:#53748D;stroke-width:0.5;" width="212.1855" x="555.44" y="258.4386"/><line style="stroke:#53748D;stroke-width:0.5;" x1="555.44" x2="767.6255" y1="284.5373" y2="284.5373"/><text fill="#000000" font-family="sans-serif" font-size="14" lengthAdjust="spacing" textLength="192.1855" x="565.44" y="276.5705">Waiting for protocol permission</text></g><g class="entity" data-qualified-name="Cancelling" data-source-line="9" id="ent0005"><rect fill="#FFF3CD" height="50" rx="6" ry="6" style="stroke:#53748D;stroke-width:0.5;" width="129.7373" x="1000.67" y="532.9886"/><line style="stroke:#53748D;stroke-width:0.5;" x1="1000.67" x2="1130.4073" y1="559.0873" y2="559.0873"/><text fill="#000000" font-family="sans-serif" font-size="14" lengthAdjust="spacing" textLength="109.7373" x="1010.67" y="551.1205">Cancel requested</text></g><g class="entity" data-qualified-name="Completed" data-source-line="10" id="ent0006"><rect fill="#E8F3EC" height="52.1973" rx="6" ry="6" style="stroke:#53748D;stroke-width:0.5;" width="177.9785" x="1015.55" y="708.2286"/><line style="stroke:#53748D;stroke-width:0.5;" x1="1015.55" x2="1193.5285" y1="750.4259" y2="750.4259"/><text fill="#000000" font-family="sans-serif" font-size="14" lengthAdjust="spacing" textLength="67.7031" x="1025.55" y="726.3605">Completed</text><text fill="#000000" font-family="sans-serif" font-size="14" lengthAdjust="spacing" textLength="157.9785" x="1025.55" y="742.4591">record actual stop reason</text></g><g class="entity" data-qualified-name="Cancelled" data-source-line="11" id="ent0007"><rect fill="#FCE9E7" height="50" rx="6" ry="6" style="stroke:#53748D;stroke-width:0.5;" width="82.2617" x="1262.4" y="793.4786"/><line style="stroke:#53748D;stroke-width:0.5;" x1="1262.4" x2="1344.6617" y1="819.5773" y2="819.5773"/><text fill="#000000" font-family="sans-serif" font-size="14" lengthAdjust="spacing" textLength="62.2617" x="1272.4" y="811.6105">Cancelled</text></g><g class="entity" data-qualified-name="Failed" data-source-line="12" id="ent0008"><rect fill="#FCE9E7" height="50" rx="6" ry="6" style="stroke:#53748D;stroke-width:0.5;" width="58.1309" x="663.47" y="625.1786"/><line style="stroke:#53748D;stroke-width:0.5;" x1="663.47" x2="721.6009" y1="651.2773" y2="651.2773"/><text fill="#000000" font-family="sans-serif" font-size="14" lengthAdjust="spacing" textLength="38.1309" x="673.47" y="643.3105">Failed</text></g><g class="entity" data-qualified-name="Interrupted" data-source-line="13" id="ent0009"><rect fill="#FFF3CD" height="50" rx="6" ry="6" style="stroke:#53748D;stroke-width:0.5;" width="209.1025" x="292.98" y="709.3286"/><line style="stroke:#53748D;stroke-width:0.5;" x1="292.98" x2="502.0825" y1="735.4273" y2="735.4273"/><text fill="#000000" font-family="sans-serif" font-size="14" lengthAdjust="spacing" textLength="189.1025" x="302.98" y="727.4605">Interrupted / delivery uncertain</text></g><g class="entity" data-qualified-name="Recovering" data-source-line="14" id="ent0010"><rect fill="#EAF2F8" height="52.1973" rx="6" ry="6" style="stroke:#53748D;stroke-width:0.5;" width="234.4297" x="436.32" y="873.4786"/><line style="stroke:#53748D;stroke-width:0.5;" x1="436.32" x2="670.7497" y1="915.6759" y2="915.6759"/><text fill="#000000" font-family="sans-serif" font-size="14" lengthAdjust="spacing" textLength="121.3857" x="446.32" y="891.6105">Recovering runtime</text><text fill="#000000" font-family="sans-serif" font-size="14" lengthAdjust="spacing" textLength="214.4297" x="446.32" y="907.7091">new epoch + capability handshake</text></g><g class="start_entity" data-qualified-name=".start." data-source-line="16" id="ent0011"><ellipse cx="126.54" cy="53.0986" fill="#222222" rx="10" ry="10" style="stroke:#222222;stroke-width:1;"/></g><g class="end_entity" data-qualified-name=".end." data-source-line="32" id="ent0028"><ellipse cx="1015.54" cy="1056.8686" fill="none" rx="11" ry="11" style="stroke:#222222;stroke-width:1;"/><ellipse cx="1015.54" cy="1056.8686" fill="#222222" rx="6" ry="6" style="stroke:#222222;stroke-width:1;"/></g><g class="entity" data-qualified-name="GMN33" data-source-line="38" id="ent0034"><path d="M802.5,260.2886 L802.5,279.4386 L767.8,283.4386 L802.5,287.4386 L802.5,306.5845 A6,6 0 0 0 808.5,312.5845 L1192.5674,312.5845 A6,6 0 0 0 1198.5674,306.5845 L1198.5674,264.2886 L1188.5674,254.2886 L808.5,254.2886 A6,6 0 0 0 802.5,260.2886" fill="#FFF3CD" style="stroke:#BC984A;stroke-width:0.5;"/><path d="M1188.5674,254.2886 L1188.5674,261.2886 A3,3 0 0 0 1191.5674,264.2886 L1198.5674,264.2886 L1188.5674,254.2886" fill="#FFF3CD" style="stroke:#BC984A;stroke-width:0.5;"/><text fill="#000000" font-family="sans-serif" font-size="14" lengthAdjust="spacing" textLength="333.8262" x="808.5" y="272.4205">Protocol permission is separate from design approval.</text><text fill="#000000" font-family="sans-serif" font-size="14" lengthAdjust="spacing" textLength="375.0674" x="808.5" y="288.5191">Ordinary photo/measurement forms are durable interactions;</text><text fill="#000000" font-family="sans-serif" font-size="14" lengthAdjust="spacing" textLength="345.4746" x="808.5" y="304.6177">their MCP request returns without waiting for a browser.</text></g><g class="entity" data-qualified-name="GMN36" data-source-line="43" id="ent0037"><path d="M1165.16,526.7886 L1165.16,553.9886 L1130.89,557.9886 L1165.16,561.9886 L1165.16,589.1832 A6,6 0 0 0 1171.16,595.1832 L1531.91,595.1832 A6,6 0 0 0 1537.91,589.1832 L1537.91,530.7886 L1527.91,520.7886 L1171.16,520.7886 A6,6 0 0 0 1165.16,526.7886" fill="#FFF3CD" style="stroke:#BC984A;stroke-width:0.5;"/><path d="M1527.91,520.7886 L1527.91,527.7886 A3,3 0 0 0 1530.91,530.7886 L1537.91,530.7886 L1527.91,520.7886" fill="#FFF3CD" style="stroke:#BC984A;stroke-width:0.5;"/><text fill="#000000" font-family="sans-serif" font-size="14" lengthAdjust="spacing" textLength="322.1846" x="1171.16" y="538.9205">Cancel is a notification, not a request/response pair.</text><text fill="#000000" font-family="sans-serif" font-size="14" lengthAdjust="spacing" textLength="268.4814" x="1171.16" y="555.0191">Resolve pending permissions as cancelled.</text><text fill="#000000" font-family="sans-serif" font-size="14" lengthAdjust="spacing" textLength="351.75" x="1171.16" y="571.1177">Request cancellation of associated CAD jobs separately.</text><text fill="#000000" font-family="sans-serif" font-size="14" lengthAdjust="spacing" textLength="312.0947" x="1171.16" y="587.2164">Accept final updates but fence domain publication.</text></g><g class="entity" data-qualified-name="GMN39" data-source-line="49" id="ent0040"><path d="M537.16,711.1786 L537.16,730.3286 L502.28,734.3286 L537.16,738.3286 L537.16,757.4745 A6,6 0 0 0 543.16,763.4745 L903.9032,763.4745 A6,6 0 0 0 909.9032,757.4745 L909.9032,715.1786 L899.9032,705.1786 L543.16,705.1786 A6,6 0 0 0 537.16,711.1786" fill="#FFF3CD" style="stroke:#BC984A;stroke-width:0.5;"/><path d="M899.9032,705.1786 L899.9032,712.1786 A3,3 0 0 0 902.9032,715.1786 L909.9032,715.1786 L899.9032,705.1786" fill="#FFF3CD" style="stroke:#BC984A;stroke-width:0.5;"/><text fill="#000000" font-family="sans-serif" font-size="14" lengthAdjust="spacing" textLength="351.7432" x="543.16" y="723.3105">Never silently resend a prompt after an ambiguous send.</text><text fill="#000000" font-family="sans-serif" font-size="14" lengthAdjust="spacing" textLength="345.4951" x="543.16" y="739.4091">Runtime epoch rejects events from replaced processes.</text><text fill="#000000" font-family="sans-serif" font-size="14" lengthAdjust="spacing" textLength="340.0947" x="543.16" y="755.5077">Persist user messages independently of agent echoes.</text></g><g class="entity" data-qualified-name="GMN42" data-source-line="54" id="ent0043"><path d="M306.07,1025.6786 L306.07,1088.0732 A6,6 0 0 0 312.07,1094.0732 L794.9919,1094.0732 A6,6 0 0 0 800.9919,1088.0732 L800.9919,1029.6786 L790.9919,1019.6786 L557.54,1019.6786 L553.54,925.8686 L549.54,1019.6786 L312.07,1019.6786 A6,6 0 0 0 306.07,1025.6786" fill="#FFF3CD" style="stroke:#BC984A;stroke-width:0.5;"/><path d="M790.9919,1019.6786 L790.9919,1026.6786 A3,3 0 0 0 793.9919,1029.6786 L800.9919,1029.6786 L790.9919,1019.6786" fill="#FFF3CD" style="stroke:#BC984A;stroke-width:0.5;"/><text fill="#000000" font-family="sans-serif" font-size="14" lengthAdjust="spacing" textLength="397.6396" x="312.07" y="1037.8105">Browser disconnect only detaches a subscriber; work continues.</text><text fill="#000000" font-family="sans-serif" font-size="14" lengthAdjust="spacing" textLength="438.7305" x="312.07" y="1053.9091">API replay uses durable sequence numbers, not timer-based "settling".</text><text fill="#000000" font-family="sans-serif" font-size="14" lengthAdjust="spacing" textLength="378.1846" x="312.07" y="1070.0077">Session load replay is reconciled separately from live events.</text><text fill="#000000" font-family="sans-serif" font-size="14" lengthAdjust="spacing" textLength="473.9219" x="312.07" y="1086.1064">Optional queued user messages are dispatched serially after a terminal turn.</text></g><!--link *start* to Accepted--><g class="link" data-entity-1="ent0011" data-entity-2="ent0001" data-link-type="dependency" data-source-line="16" id="lnk12"><path d="M126.54,63.5586 C126.54,77.4686 126.54,98.9186 126.54,118.7586" fill="none" id="*start*-to-Accepted" style="stroke:#465868;stroke-width:1.3;"/><polygon fill="#465868" points="126.54,123.7586,130.54,114.7586,126.54,118.7586,122.54,114.7586,126.54,123.7586" style="stroke:#465868;stroke-width:1.3;stroke-linejoin:miter;stroke-miterlimit:10;"/></g><!--link Accepted to Dispatching--><g class="link" data-entity-1="ent0001" data-entity-2="ent0002" data-link-type="dependency" data-source-line="17" id="lnk13"><path d="M126.54,176.4986 C126.54,199.7386 126.54,228.9986 126.54,252.2086" fill="none" id="Accepted-to-Dispatching" style="stroke:#465868;stroke-width:1.3;"/><polygon fill="#465868" points="126.54,257.2086,130.54,248.2086,126.54,252.2086,122.54,248.2086,126.54,257.2086" style="stroke:#465868;stroke-width:1.3;stroke-linejoin:miter;stroke-miterlimit:10;"/><text fill="#000000" font-family="sans-serif" font-size="14" lengthAdjust="spacing" textLength="203.8818" x="127.54" y="220.4205">dispatch command claimed once</text></g><!--link Dispatching to Running--><g class="link" data-entity-1="ent0002" data-entity-2="ent0003" data-link-type="dependency" data-source-line="18" id="lnk14"><path d="M167.43,309.9086 C196.33,326.7786 236.54,348.0386 274.54,360.5886 C354.43,386.9886 444.4083,400.5479 512.7883,407.8479" fill="none" id="Dispatching-to-Running" style="stroke:#465868;stroke-width:1.3;"/><polygon fill="#465868" points="517.76,408.3786,509.2355,403.4459,512.7883,407.8479,508.3862,411.4007,517.76,408.3786" style="stroke:#465868;stroke-width:1.3;stroke-linejoin:miter;stroke-miterlimit:10;"/><text fill="#000000" font-family="sans-serif" font-size="14" lengthAdjust="spacing" textLength="217.8955" x="275.54" y="356.7205">request sent; no concurrent prompt</text></g><!--link Running to Permission--><g class="link" data-entity-1="ent0003" data-entity-2="ent0004" data-link-type="dependency" data-source-line="19" id="lnk15"><path d="M701.11,404.8186 C727.84,396.8986 754.22,383.4186 770.54,360.5886 C785.9,339.0886 770.2396,323.7271 743.2296,310.9471" fill="none" id="Running-to-Permission" style="stroke:#465868;stroke-width:1.3;"/><polygon fill="#465868" points="738.71,308.8086,745.1345,316.2736,743.2296,310.9471,748.5561,309.0422,738.71,308.8086" style="stroke:#465868;stroke-width:1.3;stroke-linejoin:miter;stroke-miterlimit:10;"/><text fill="#000000" font-family="sans-serif" font-size="14" lengthAdjust="spacing" textLength="173.5303" x="776.83" y="356.7205">session/request_permission</text></g><!--link Permission to Running--><g class="link" data-entity-1="ent0004" data-entity-2="ent0003" data-link-type="dependency" data-source-line="20" id="lnk16"><path d="M555.08,304.8386 C535.98,313.3686 518.4,325.4586 506.54,342.5886 C493.05,362.0586 504.83,375.8094 528.1,387.8594" fill="none" id="Permission-to-Running" style="stroke:#465868;stroke-width:1.3;"/><polygon fill="#465868" points="532.54,390.1586,526.3873,382.4681,528.1,387.8594,522.7086,389.5721,532.54,390.1586" style="stroke:#465868;stroke-width:1.3;stroke-linejoin:miter;stroke-miterlimit:10;"/><text fill="#000000" font-family="sans-serif" font-size="14" lengthAdjust="spacing" textLength="254.4883" x="507.54" y="356.7205">validated response on original request ID</text></g><!--link Running to Completed--><g class="link" data-entity-1="ent0003" data-entity-2="ent0006" data-link-type="dependency" data-source-line="21" id="lnk17"><path d="M701.06,427.1186 C732.44,434.7886 765.23,448.4686 787.54,472.7886 C849.77,540.6186 765.63,610.9186 831.54,675.1786 C882.4,724.7786 919.11,690.1386 988.54,705.1786 C997.24,707.0686 1001.4297,707.9873 1010.4697,710.0873" fill="none" id="Running-to-Completed" style="stroke:#465868;stroke-width:1.3;"/><polygon fill="#465868" points="1015.34,711.2186,1007.4785,705.2859,1010.4697,710.0873,1005.6683,713.0784,1015.34,711.2186" style="stroke:#465868;stroke-width:1.3;stroke-linejoin:miter;stroke-miterlimit:10;"/><text fill="#000000" font-family="sans-serif" font-size="14" lengthAdjust="spacing" textLength="154.082" x="813.04" y="563.1205">original prompt response</text></g><!--link Permission to Cancelling--><g class="link" data-entity-1="ent0004" data-entity-2="ent0005" data-link-type="dependency" data-source-line="22" id="lnk18"><path d="M766.8,308.9286 C772.79,310.1986 778.74,311.4286 784.54,312.5886 C861.48,328.0186 895.56,295.7686 958.54,342.5886 C1022.8,390.3686 1049.8421,482.6362 1059.8321,527.8862" fill="none" id="Permission-to-Cancelling" style="stroke:#465868;stroke-width:1.3;"/><polygon fill="#465868" points="1060.91,532.7686,1062.8757,523.1179,1059.8321,527.8862,1055.0638,524.8426,1060.91,532.7686" style="stroke:#465868;stroke-width:1.3;stroke-linejoin:miter;stroke-miterlimit:10;"/><text fill="#000000" font-family="sans-serif" font-size="14" lengthAdjust="spacing" textLength="28.7998" x="1032.73" y="421.8205">Stop</text></g><!--link Running to Cancelling--><g class="link" data-entity-1="ent0003" data-entity-2="ent0005" data-link-type="dependency" data-source-line="23" id="lnk19"><path d="M701.34,437.9686 C742.6,447.6186 791.77,459.8686 835.54,472.7886 C897.82,491.1686 912.64,498.2286 973.54,520.7886 C983.51,524.4786 989.4012,526.6933 999.6412,530.6833" fill="none" id="Running-to-Cancelling" style="stroke:#465868;stroke-width:1.3;"/><polygon fill="#465868" points="1004.3,532.4986,997.3664,525.504,999.6412,530.6833,994.4619,532.9581,1004.3,532.4986" style="stroke:#465868;stroke-width:1.3;stroke-linejoin:miter;stroke-miterlimit:10;"/><text fill="#000000" font-family="sans-serif" font-size="14" lengthAdjust="spacing" textLength="28.7998" x="892.11" y="486.9205">Stop</text></g><!--link Cancelling to Cancelled--><g class="link" data-entity-1="ent0005" data-entity-2="ent0007" data-link-type="dependency" data-source-line="24" id="lnk20"><path d="M1116.04,583.3786 C1126.3,587.7386 1137.14,591.9186 1147.54,595.1786 C1214.07,616.0586 1256.91,571.5986 1301.54,625.1786 C1341.38,673.0286 1325.6938,748.4377 1313.4438,788.4477" fill="none" id="Cancelling-to-Cancelled" style="stroke:#465868;stroke-width:1.3;"/><polygon fill="#465868" points="1311.98,793.2286,1318.4396,785.794,1313.4438,788.4477,1310.7901,783.4519,1311.98,793.2286" style="stroke:#465868;stroke-width:1.3;stroke-linejoin:miter;stroke-miterlimit:10;"/><text fill="#000000" font-family="sans-serif" font-size="14" lengthAdjust="spacing" textLength="229.1885" x="1324.48" y="655.3105">original prompt response = cancelled</text></g><!--link Cancelling to Completed--><g class="link" data-entity-1="ent0005" data-entity-2="ent0006" data-link-type="dependency" data-source-line="25" id="lnk21"><path d="M1070.96,583.2286 C1078.3,616.0686 1090.2689,669.5491 1097.7489,702.9991" fill="none" id="Cancelling-to-Completed" style="stroke:#465868;stroke-width:1.3;"/><polygon fill="#465868" points="1098.84,707.8786,1100.7795,698.2226,1097.7489,702.9991,1092.9724,699.9685,1098.84,707.8786" style="stroke:#465868;stroke-width:1.3;stroke-linejoin:miter;stroke-miterlimit:10;"/><text fill="#000000" font-family="sans-serif" font-size="14" lengthAdjust="spacing" textLength="201.5576" x="1091.81" y="655.3105">completion already won the race</text></g><!--link Running to Failed--><g class="link" data-entity-1="ent0003" data-entity-2="ent0008" data-link-type="dependency" data-source-line="26" id="lnk22"><path d="M604.95,443.0986 C603.26,457.3286 602.6,475.2786 606.54,490.7886 C619.59,542.1886 650.1673,590.8904 671.2973,620.6804" fill="none" id="Running-to-Failed" style="stroke:#465868;stroke-width:1.3;"/><polygon fill="#465868" points="674.19,624.7586,672.2457,615.1036,671.2973,620.6804,665.7205,619.7319,674.19,624.7586" style="stroke:#465868;stroke-width:1.3;stroke-linejoin:miter;stroke-miterlimit:10;"/><text fill="#000000" font-family="sans-serif" font-size="14" lengthAdjust="spacing" textLength="175.8408" x="607.54" y="486.9205">terminal RPC / adapter error</text></g><!--link Dispatching to Interrupted--><g class="link" data-entity-1="ent0002" data-entity-2="ent0009" data-link-type="dependency" data-source-line="27" id="lnk23"><path d="M135.77,309.7486 C150.74,349.5386 182.3,428.5986 218.54,490.7886 C268.07,575.7986 338.1797,662.9153 373.6297,705.2453" fill="none" id="Dispatching-to-Interrupted" style="stroke:#465868;stroke-width:1.3;"/><polygon fill="#465868" points="376.84,709.0786,374.1282,699.6105,373.6297,705.2453,367.9949,704.7469,376.84,709.0786" style="stroke:#465868;stroke-width:1.3;stroke-linejoin:miter;stroke-miterlimit:10;"/><text fill="#000000" font-family="sans-serif" font-size="14" lengthAdjust="spacing" textLength="188.3096" x="219.54" y="486.9205">crash before delivery is known</text></g><!--link Running to Interrupted--><g class="link" data-entity-1="ent0003" data-entity-2="ent0009" data-link-type="dependency" data-source-line="28" id="lnk24"><path d="M590.96,442.8786 C575.79,463.6086 553.93,493.8586 535.54,520.7886 C489.63,587.9986 440.6784,664.8402 415.5684,704.6302" fill="none" id="Running-to-Interrupted" style="stroke:#465868;stroke-width:1.3;"/><polygon fill="#465868" points="412.9,708.8586,421.0859,703.3822,415.5684,704.6302,414.3204,699.1127,412.9,708.8586" style="stroke:#465868;stroke-width:1.3;stroke-linejoin:miter;stroke-miterlimit:10;"/><text fill="#000000" font-family="sans-serif" font-size="14" lengthAdjust="spacing" textLength="72.3584" x="536.54" y="563.1205">runtime lost</text></g><!--link Cancelling to Interrupted--><g class="link" data-entity-1="ent0005" data-entity-2="ent0009" data-link-type="dependency" data-source-line="29" id="lnk25"><path d="M1005.41,583.4186 C994.84,587.4886 983.91,591.5586 973.54,595.1786 C930.53,610.1986 918.71,610.6486 875.54,625.1786 C814.5,645.7286 802.03,659.6286 739.54,675.1786 C643.77,699.0086 616.6,687.3986 519.54,705.1786 C513.34,706.3186 511.8699,706.5633 505.4699,707.8633" fill="none" id="Cancelling-to-Interrupted" style="stroke:#465868;stroke-width:1.3;"/><polygon fill="#465868" points="500.57,708.8586,510.1861,710.987,505.4699,707.8633,508.5936,703.1471,500.57,708.8586" style="stroke:#465868;stroke-width:1.3;stroke-linejoin:miter;stroke-miterlimit:10;"/><text fill="#000000" font-family="sans-serif" font-size="14" lengthAdjust="spacing" textLength="195.3711" x="876.54" y="655.3105">cancellation deadline exceeded</text></g><!--link Permission to Interrupted--><g class="link" data-entity-1="ent0004" data-entity-2="ent0009" data-link-type="dependency" data-source-line="30" id="lnk26"><path d="M555.07,304.5686 C532.38,313.1086 510.26,325.2686 493.54,342.5886 C392.13,447.6186 392.0633,636.5952 395.5433,704.2852" fill="none" id="Permission-to-Interrupted" style="stroke:#465868;stroke-width:1.3;"/><polygon fill="#465868" points="395.8,709.2786,399.3326,700.0851,395.5433,704.2852,391.3432,700.4959,395.8,709.2786" style="stroke:#465868;stroke-width:1.3;stroke-linejoin:miter;stroke-miterlimit:10;"/><text fill="#000000" font-family="sans-serif" font-size="14" lengthAdjust="spacing" textLength="93.3926" x="421.36" y="486.9205">connection lost</text></g><!--link Interrupted to Recovering--><g class="link" data-entity-1="ent0009" data-entity-2="ent0010" data-link-type="dependency" data-source-line="31" id="lnk27"><path d="M420.89,759.7686 C450.04,790.2786 496.2154,838.594 525.7954,869.544" fill="none" id="Interrupted-to-Recovering" style="stroke:#465868;stroke-width:1.3;"/><polygon fill="#465868" points="529.25,873.1586,525.9234,863.8886,525.7954,869.544,520.14,869.416,529.25,873.1586" style="stroke:#465868;stroke-width:1.3;stroke-linejoin:miter;stroke-miterlimit:10;"/><text fill="#000000" font-family="sans-serif" font-size="14" lengthAdjust="spacing" textLength="210.1504" x="499.62" y="823.6105">fence old epoch; stop orphan jobs</text></g><!--link Recovering to *end*--><g class="link" data-entity-1="ent0010" data-entity-2="ent0028" data-link-type="dependency" data-source-line="32" id="lnk29"><path d="M588.28,926.0886 C617.22,946.1786 660.23,973.4186 701.54,989.6786 C730.76,1001.1686 947.2287,1042.841 999.5587,1052.831" fill="none" id="Recovering-to-*end*" style="stroke:#465868;stroke-width:1.3;"/><polygon fill="#465868" points="1004.47,1053.7686,996.3797,1048.1519,999.5587,1052.831,994.8796,1056.01,1004.47,1053.7686" style="stroke:#465868;stroke-width:1.3;stroke-linejoin:miter;stroke-miterlimit:10;"/><text fill="#000000" font-family="sans-serif" font-size="14" lengthAdjust="spacing" textLength="233.4609" x="702.54" y="969.8105">resume/load if supported; release slot</text><text fill="#000000" font-family="sans-serif" font-size="14" lengthAdjust="spacing" textLength="181.3096" x="728.6157" y="985.9091">require explicit next message</text></g><!--link Completed to *end*--><g class="link" data-entity-1="ent0006" data-entity-2="ent0028" data-link-type="dependency" data-source-line="33" id="lnk30"><path d="M1097.48,760.7486 C1079.1,826.9386 1031.6876,997.6809 1019.6076,1041.1909" fill="none" id="Completed-to-*end*" style="stroke:#465868;stroke-width:1.3;"/><polygon fill="#465868" points="1018.27,1046.0086,1024.5319,1038.4067,1019.6076,1041.1909,1016.8235,1036.2666,1018.27,1046.0086" style="stroke:#465868;stroke-width:1.3;stroke-linejoin:miter;stroke-miterlimit:10;"/></g><!--link Cancelled to *end*--><g class="link" data-entity-1="ent0007" data-entity-2="ent0028" data-link-type="dependency" data-source-line="34" id="lnk31"><path d="M1273.8,843.8886 C1209.56,896.6186 1064.5048,1015.6763 1027.7248,1045.8663" fill="none" id="Cancelled-to-*end*" style="stroke:#465868;stroke-width:1.3;"/><polygon fill="#465868" points="1023.86,1049.0386,1033.3544,1046.4203,1027.7248,1045.8663,1028.2787,1040.2367,1023.86,1049.0386" style="stroke:#465868;stroke-width:1.3;stroke-linejoin:miter;stroke-miterlimit:10;"/></g><!--link Failed to *end*--><g class="link" data-entity-1="ent0008" data-entity-2="ent0028" data-link-type="dependency" data-source-line="35" id="lnk32"><path d="M721.79,657.8786 C784.72,672.2886 927.3,704.9486 927.54,705.1786 C1027.95,803.6086 1020.3856,993.3028 1016.8356,1040.4328" fill="none" id="Failed-to-*end*" style="stroke:#465868;stroke-width:1.3;"/><polygon fill="#465868" points="1016.46,1045.4186,1021.1247,1036.7445,1016.8356,1040.4328,1013.1473,1036.1436,1016.46,1045.4186" style="stroke:#465868;stroke-width:1.3;stroke-linejoin:miter;stroke-miterlimit:10;"/></g><?plantuml-src VLRBSkD45DthAowP7KEInIm0fw0gE75L5a0gis11AAebNLizQNLh-X6FTtm4NyYNSAwwPSbEmSgI-hxFkQVzbRQDIIrJxBZdAvrwKqKT3TFQgsqyq3z__Ks3T_qGAIPloUqj-z3fWPHjoNFZNjaVgkW6Yevg5wFhgTKuYDhPgWfHHQQBswRX8NBxR7iEGUsOtbERlAgHgTLXKB7fncY-lI0LQBAV_E-AZRQxPpkmlsmw5PV5D9yJacRdXV7a_vIi7NsTPHX7_SeKK0bglCxjZPx5RFBwJUc8LzewBqE8hd66aBtNe-VeydXydRpMoZPiqCtdn26Mcl978z7URJQR3-kxepco6nvdamSWzILbACXGFQjGCXqDwTtzTviFz-lJXEOqavXjrlVVttyxcMsKdcpouxd1WutiVPAvqpMrRBHWImdnV5GwLx4qEklaARD1UlJ9HjtpixMy9nuSq7rFZHfKhOq6hJgm9tJgXVFOZuvLzVlNVz3bvOyp0wQ7yUi2MbhDp6bStmiV6wEGjIM7agkbhVWMSE5Ne043RBmXw-1lc-GzNWlPgybO76U8uJknfiJuSwP3jR0xpVUgZ6wLzE0v3Cu6HeNalDvfguvCeOUxaxGptglPjkpY5ESyvu9cA_e80fr6V7Ew-B8m-D-Kz0E0B6Pl_1SbD_bPAbC6D6uFjCSpX8Qy0ZpBmWeVLnIb7KdwzBW61rMh0BqdCCxvDu0kgOXyNeMEQiQoyanU7UZ5GYTEqfqw5gwISI6UDtIM8X-giQaMBS6EYRyqp2s6SOR5cQ_3BeoYc1CjJqUspCkpeYqZ4JdJvjsvoLhW_82zeK-k3jN2NBnbQuJN8VLyRPngIMyff65m7WbkS68W9D0yuwBepAYMg7mmkj6HB7-9L9Ivca4iaQkP5jEN0jZqMba70G1XEeZoTgc9H8zlXLDG2JmeBxAnzN9ZSD0x46K0sR0jL_3xrRTW0Y0SEWIuxb5_yhYaiAE0k0-a1EToXsYPfXh76sxW39PfJp-l7u_BvLdkhq1x7JkN8kqNsgwezcuVs5zL31MHPiuwccc1u4NWqOGIMxtLpKY9R-GDtqhAw-F634fxQUc9WpEuUGPaaTppH8B8u76jicsk-uHpg4I5u1ezYidwzcuamt6MvY2UMJ1fE-vH6aHu0jLeEREgTJsqd8PKcrBtVtQzu2ZY_i8W70K0RwCv2Dd4JKtwWByBE0O_LL_hNN99whAvbx9X-IBm_0cB40ZXB7v6_3qF1gBGIh06FEGWVk1Hq9X10ZGJFGEmRbaccCkGaUo45DnqJjnEUod_I62rk6I8VifuomrI5XEAZ6WjHzLqBCY6L8V6wvhz3OJBlyW6Wp4fbtRx-92BFaXruKZ48B39c6tguHeo9wHxVrbZ0rkw21oZCEb2udpCrmcDEri2WbZoJy0suuxDuEPHYR2LsOrhCWY4G1fv4ynFPpNkI97DCPRNoY1I0MlMMrcEUNR_0W00?></g></svg>