<svg xmlns="http://www.w3.org/2000/svg" xmlns:xlink="http://www.w3.org/1999/xlink" contentStyleType="text/css" data-diagram-type="STATE" height="1173px" preserveAspectRatio="none" style="width:1585px;height:1173px;background:#FAFAF7;" version="1.1" viewBox="0 0 1585 1173" width="1585px" zoomAndPan="magnify"><?plantuml $version$?><defs/><g><rect fill="#FAFAF7" height="1173" style="stroke:none;stroke-width:1;" width="1585" x="0" y="0"/><g class="title" data-source-line="2"><text fill="#000000" font-family="sans-serif" font-size="14" font-weight="700" lengthAdjust="spacing" textLength="397.5166" x="590.6006" y="23.1318">Crafty &#8212; turn ownership within each isolated agent session</text></g><g class="entity" data-qualified-name="Accepted" data-source-line="5" id="ent0001"><rect fill="#EAF2F8" height="52.1973" rx="6" ry="6" style="stroke:#53748D;stroke-width:0.5;" width="239.0713" x="16.14" y="124.0986"/><line style="stroke:#53748D;stroke-width:0.5;" x1="16.14" x2="255.2113" y1="166.2959" y2="166.2959"/><text fill="#000000" font-family="sans-serif" font-size="14" lengthAdjust="spacing" textLength="58.3721" x="26.14" y="142.2305">Accepted</text><text fill="#000000" font-family="sans-serif" font-size="14" lengthAdjust="spacing" textLength="219.0713" x="26.14" y="158.3291">message + durable dispatch record</text></g><g class="entity" data-qualified-name="Dispatching" data-source-line="6" id="ent0002"><rect fill="#EAF2F8" height="52.1973" rx="6" ry="6" style="stroke:#53748D;stroke-width:0.5;" width="257.3574" x="7" y="257.3486"/><line style="stroke:#53748D;stroke-width:0.5;" x1="7" x2="264.3574" y1="299.5459" y2="299.5459"/><text fill="#000000" font-family="sans-serif" font-size="14" lengthAdjust="spacing" textLength="73.1514" x="17" y="275.4805">Dispatching</text><text fill="#000000" font-family="sans-serif" font-size="14" lengthAdjust="spacing" textLength="237.3574" x="17" y="291.5791">per-agent-session ownership acquired</text></g><g class="entity" data-qualified-name="Running" data-source-line="7" id="ent0003"><rect fill="#EAF2F8" height="52.1973" rx="6" ry="6" style="stroke:#53748D;stroke-width:0.5;" width="182.6406" x="527.36" y="390.5986"/><line style="stroke:#53748D;stroke-width:0.5;" x1="527.36" x2="710.0006" y1="432.7959" y2="432.7959"/><text fill="#000000" font-family="sans-serif" font-size="14" lengthAdjust="spacing" textLength="52.1514" x="537.36" y="408.7305">Running</text><text fill="#000000" font-family="sans-serif" font-size="14" lengthAdjust="spacing" textLength="162.6406" x="537.36" y="424.8291">one active session/prompt</text></g><g class="entity" data-qualified-name="Permission" data-source-line="8" id="ent0004"><rect fill="#EAF2F8" height="50" rx="6" ry="6" style="stroke:#53748D;stroke-width:0.5;" width="212.1855" x="564.59" y="258.4486"/><line style="stroke:#53748D;stroke-width:0.5;" x1="564.59" x2="776.7755" y1="284.5473" y2="284.5473"/><text fill="#000000" font-family="sans-serif" font-size="14" lengthAdjust="spacing" textLength="192.1855" x="574.59" y="276.5805">Waiting for protocol permission</text></g><g class="entity" data-qualified-name="Cancelling" data-source-line="9" id="ent0005"><rect fill="#FFF3CD" height="50" rx="6" ry="6" style="stroke:#53748D;stroke-width:0.5;" width="129.7373" x="1009.81" y="541.0386"/><line style="stroke:#53748D;stroke-width:0.5;" x1="1009.81" x2="1139.5473" y1="567.1373" y2="567.1373"/><text fill="#000000" font-family="sans-serif" font-size="14" lengthAdjust="spacing" textLength="109.7373" x="1019.81" y="559.1705">Cancel requested</text></g><g class="entity" data-qualified-name="Completed" data-source-line="10" id="ent0006"><rect fill="#E8F3EC" height="52.1973" rx="6" ry="6" style="stroke:#53748D;stroke-width:0.5;" width="177.9785" x="1024.69" y="732.3886"/><line style="stroke:#53748D;stroke-width:0.5;" x1="1024.69" x2="1202.6685" y1="774.5859" y2="774.5859"/><text fill="#000000" font-family="sans-serif" font-size="14" lengthAdjust="spacing" textLength="67.7031" x="1034.69" y="750.5205">Completed</text><text fill="#000000" font-family="sans-serif" font-size="14" lengthAdjust="spacing" textLength="157.9785" x="1034.69" y="766.6191">record actual stop reason</text></g><g class="entity" data-qualified-name="Cancelled" data-source-line="11" id="ent0007"><rect fill="#FCE9E7" height="50" rx="6" ry="6" style="stroke:#53748D;stroke-width:0.5;" width="82.2617" x="1271.55" y="825.6786"/><line style="stroke:#53748D;stroke-width:0.5;" x1="1271.55" x2="1353.8117" y1="851.7773" y2="851.7773"/><text fill="#000000" font-family="sans-serif" font-size="14" lengthAdjust="spacing" textLength="62.2617" x="1281.55" y="843.8105">Cancelled</text></g><g class="entity" data-qualified-name="Failed" data-source-line="12" id="ent0008"><rect fill="#FCE9E7" height="50" rx="6" ry="6" style="stroke:#53748D;stroke-width:0.5;" width="58.1309" x="672.61" y="641.2886"/><line style="stroke:#53748D;stroke-width:0.5;" x1="672.61" x2="730.7409" y1="667.3873" y2="667.3873"/><text fill="#000000" font-family="sans-serif" font-size="14" lengthAdjust="spacing" textLength="38.1309" x="682.61" y="659.4205">Failed</text></g><g class="entity" data-qualified-name="Interrupted" data-source-line="13" id="ent0009"><rect fill="#FFF3CD" height="50" rx="6" ry="6" style="stroke:#53748D;stroke-width:0.5;" width="209.1025" x="302.13" y="733.4786"/><line style="stroke:#53748D;stroke-width:0.5;" x1="302.13" x2="511.2325" y1="759.5773" y2="759.5773"/><text fill="#000000" font-family="sans-serif" font-size="14" lengthAdjust="spacing" textLength="189.1025" x="312.13" y="751.6105">Interrupted / delivery uncertain</text></g><g class="entity" data-qualified-name="Recovering" data-source-line="14" id="ent0010"><rect fill="#EAF2F8" height="52.1973" rx="6" ry="6" style="stroke:#53748D;stroke-width:0.5;" width="303.6504" x="483.85" y="905.6786"/><line style="stroke:#53748D;stroke-width:0.5;" x1="483.85" x2="787.5004" y1="947.8759" y2="947.8759"/><text fill="#000000" font-family="sans-serif" font-size="14" lengthAdjust="spacing" textLength="172.7441" x="493.85" y="923.8105">Recovering session runtime</text><text fill="#000000" font-family="sans-serif" font-size="14" lengthAdjust="spacing" textLength="283.6504" x="493.85" y="939.9091">same mounts + ACP session; new generation</text></g><g class="start_entity" data-qualified-name=".start." data-source-line="16" id="ent0011"><ellipse cx="135.68" cy="53.0986" fill="#222222" rx="10" ry="10" style="stroke:#222222;stroke-width:1;"/></g><g class="end_entity" data-qualified-name=".end." data-source-line="32" id="ent0028"><ellipse cx="1024.68" cy="1105.1686" fill="none" rx="11" ry="11" style="stroke:#222222;stroke-width:1;"/><ellipse cx="1024.68" cy="1105.1686" fill="#222222" rx="6" ry="6" style="stroke:#222222;stroke-width:1;"/></g><g class="entity" data-qualified-name="GMN33" data-source-line="38" id="ent0034"><path d="M811.65,260.2986 L811.65,279.4486 L776.95,283.4486 L811.65,287.4486 L811.65,306.5945 A6,6 0 0 0 817.65,312.5945 L1201.7174,312.5945 A6,6 0 0 0 1207.7174,306.5945 L1207.7174,264.2986 L1197.7174,254.2986 L817.65,254.2986 A6,6 0 0 0 811.65,260.2986" fill="#FFF3CD" style="stroke:#BC984A;stroke-width:0.5;"/><path d="M1197.7174,254.2986 L1197.7174,261.2986 A3,3 0 0 0 1200.7174,264.2986 L1207.7174,264.2986 L1197.7174,254.2986" fill="#FFF3CD" style="stroke:#BC984A;stroke-width:0.5;"/><text fill="#000000" font-family="sans-serif" font-size="14" lengthAdjust="spacing" textLength="333.8262" x="817.65" y="272.4305">Protocol permission is separate from design approval.</text><text fill="#000000" font-family="sans-serif" font-size="14" lengthAdjust="spacing" textLength="375.0674" x="817.65" y="288.5291">Ordinary photo/measurement forms are durable interactions;</text><text fill="#000000" font-family="sans-serif" font-size="14" lengthAdjust="spacing" textLength="345.4746" x="817.65" y="304.6277">their MCP request returns without waiting for a browser.</text></g><g class="entity" data-qualified-name="GMN36" data-source-line="43" id="ent0037"><path d="M1174.63,526.7886 L1174.63,562.0386 L1139.87,566.0386 L1174.63,570.0386 L1174.63,605.2818 A6,6 0 0 0 1180.63,611.2818 L1564.7179,611.2818 A6,6 0 0 0 1570.7179,605.2818 L1570.7179,530.7886 L1560.7179,520.7886 L1180.63,520.7886 A6,6 0 0 0 1174.63,526.7886" fill="#FFF3CD" style="stroke:#BC984A;stroke-width:0.5;"/><path d="M1560.7179,520.7886 L1560.7179,527.7886 A3,3 0 0 0 1563.7179,530.7886 L1570.7179,530.7886 L1560.7179,520.7886" fill="#FFF3CD" style="stroke:#BC984A;stroke-width:0.5;"/><text fill="#000000" font-family="sans-serif" font-size="14" lengthAdjust="spacing" textLength="322.1846" x="1180.63" y="538.9205">Cancel is a notification, not a request/response pair.</text><text fill="#000000" font-family="sans-serif" font-size="14" lengthAdjust="spacing" textLength="268.4814" x="1180.63" y="555.0191">Resolve pending permissions as cancelled.</text><text fill="#000000" font-family="sans-serif" font-size="14" lengthAdjust="spacing" textLength="351.75" x="1180.63" y="571.1177">Request cancellation of associated CAD jobs separately.</text><text fill="#000000" font-family="sans-serif" font-size="14" lengthAdjust="spacing" textLength="375.0879" x="1180.63" y="587.2164">Stop on a work request also cancels its delegated CAD task.</text><text fill="#000000" font-family="sans-serif" font-size="14" lengthAdjust="spacing" textLength="312.0947" x="1180.63" y="603.315">Accept final updates but fence domain publication.</text></g><g class="entity" data-qualified-name="GMN39" data-source-line="50" id="ent0040"><path d="M546.31,727.2886 L546.31,754.4786 L511.42,758.4786 L546.31,762.4786 L546.31,789.6832 A6,6 0 0 0 552.31,795.6832 L913.0532,795.6832 A6,6 0 0 0 919.0532,789.6832 L919.0532,731.2886 L909.0532,721.2886 L552.31,721.2886 A6,6 0 0 0 546.31,727.2886" fill="#FFF3CD" style="stroke:#BC984A;stroke-width:0.5;"/><path d="M909.0532,721.2886 L909.0532,728.2886 A3,3 0 0 0 912.0532,731.2886 L919.0532,731.2886 L909.0532,721.2886" fill="#FFF3CD" style="stroke:#BC984A;stroke-width:0.5;"/><text fill="#000000" font-family="sans-serif" font-size="14" lengthAdjust="spacing" textLength="351.7432" x="552.31" y="739.4205">Never silently resend a prompt after an ambiguous send.</text><text fill="#000000" font-family="sans-serif" font-size="14" lengthAdjust="spacing" textLength="345.4951" x="552.31" y="755.5191">Runtime epoch rejects events from replaced processes.</text><text fill="#000000" font-family="sans-serif" font-size="14" lengthAdjust="spacing" textLength="343.1709" x="552.31" y="771.6177">Preserve workspace and Codex-state volumes on stop.</text><text fill="#000000" font-family="sans-serif" font-size="14" lengthAdjust="spacing" textLength="340.0947" x="552.31" y="787.7164">Persist user messages independently of agent echoes.</text></g><g class="entity" data-qualified-name="GMN42" data-source-line="56" id="ent0043"><path d="M382.39,1057.8786 L382.39,1152.4704 A6,6 0 0 0 388.39,1158.4704 L882.974,1158.4704 A6,6 0 0 0 888.974,1152.4704 L888.974,1061.8786 L878.974,1051.8786 L639.68,1051.8786 L635.68,958.0686 L631.68,1051.8786 L388.39,1051.8786 A6,6 0 0 0 382.39,1057.8786" fill="#FFF3CD" style="stroke:#BC984A;stroke-width:0.5;"/><path d="M878.974,1051.8786 L878.974,1058.8786 A3,3 0 0 0 881.974,1061.8786 L888.974,1061.8786 L878.974,1051.8786" fill="#FFF3CD" style="stroke:#BC984A;stroke-width:0.5;"/><text fill="#000000" font-family="sans-serif" font-size="14" lengthAdjust="spacing" textLength="397.6396" x="388.39" y="1070.0105">Browser disconnect only detaches a subscriber; work continues.</text><text fill="#000000" font-family="sans-serif" font-size="14" lengthAdjust="spacing" textLength="438.7305" x="388.39" y="1086.1091">API replay uses durable sequence numbers, not timer-based "settling".</text><text fill="#000000" font-family="sans-serif" font-size="14" lengthAdjust="spacing" textLength="378.1846" x="388.39" y="1102.2077">Session load replay is reconciled separately from live events.</text><text fill="#000000" font-family="sans-serif" font-size="14" lengthAdjust="spacing" textLength="473.9219" x="388.39" y="1118.3064">Optional queued user messages are dispatched serially after a terminal turn.</text><text fill="#000000" font-family="sans-serif" font-size="14" lengthAdjust="spacing" textLength="485.584" x="388.39" y="1134.405">Parent and CAD sessions each have their own prompt slot and recovery state.</text><text fill="#000000" font-family="sans-serif" font-size="14" lengthAdjust="spacing" textLength="382.8672" x="388.39" y="1150.5036">Deliver child results once at a permitted parent turn boundary.</text></g><!--link *start* to Accepted--><g class="link" data-entity-1="ent0011" data-entity-2="ent0001" data-link-type="dependency" data-source-line="16" id="lnk12"><path d="M135.68,63.5686 C135.68,77.4786 135.68,98.9186 135.68,118.7586" fill="none" id="*start*-to-Accepted" style="stroke:#465868;stroke-width:1.3;"/><polygon fill="#465868" points="135.68,123.7586,139.68,114.7586,135.68,118.7586,131.68,114.7586,135.68,123.7586" style="stroke:#465868;stroke-width:1.3;stroke-linejoin:miter;stroke-miterlimit:10;"/></g><!--link Accepted to Dispatching--><g class="link" data-entity-1="ent0001" data-entity-2="ent0002" data-link-type="dependency" data-source-line="17" id="lnk13"><path d="M135.68,176.5086 C135.68,199.7486 135.68,228.9986 135.68,252.2186" fill="none" id="Accepted-to-Dispatching" style="stroke:#465868;stroke-width:1.3;"/><polygon fill="#465868" points="135.68,257.2186,139.68,248.2186,135.68,252.2186,131.68,248.2186,135.68,257.2186" style="stroke:#465868;stroke-width:1.3;stroke-linejoin:miter;stroke-miterlimit:10;"/><text fill="#000000" font-family="sans-serif" font-size="14" lengthAdjust="spacing" textLength="203.8818" x="136.68" y="220.4305">dispatch command claimed once</text></g><!--link Dispatching to Running--><g class="link" data-entity-1="ent0002" data-entity-2="ent0003" data-link-type="dependency" data-source-line="18" id="lnk14"><path d="M176.58,309.9086 C205.48,326.7786 245.68,348.0386 283.68,360.5986 C363.57,386.9886 453.5583,400.5479 521.9383,407.8479" fill="none" id="Dispatching-to-Running" style="stroke:#465868;stroke-width:1.3;"/><polygon fill="#465868" points="526.91,408.3786,518.3855,403.4459,521.9383,407.8479,517.5362,411.4007,526.91,408.3786" style="stroke:#465868;stroke-width:1.3;stroke-linejoin:miter;stroke-miterlimit:10;"/><text fill="#000000" font-family="sans-serif" font-size="14" lengthAdjust="spacing" textLength="217.8955" x="284.68" y="356.7305">request sent; no concurrent prompt</text></g><!--link Running to Permission--><g class="link" data-entity-1="ent0003" data-entity-2="ent0004" data-link-type="dependency" data-source-line="19" id="lnk15"><path d="M710.26,404.8186 C736.98,396.8986 763.36,383.4286 779.68,360.5986 C795.05,339.0886 779.3793,323.7278 752.3793,310.9478" fill="none" id="Running-to-Permission" style="stroke:#465868;stroke-width:1.3;"/><polygon fill="#465868" points="747.86,308.8086,754.2834,316.2745,752.3793,310.9478,757.7061,309.0436,747.86,308.8086" style="stroke:#465868;stroke-width:1.3;stroke-linejoin:miter;stroke-miterlimit:10;"/><text fill="#000000" font-family="sans-serif" font-size="14" lengthAdjust="spacing" textLength="173.5303" x="785.98" y="356.7305">session/request_permission</text></g><!--link Permission to Running--><g class="link" data-entity-1="ent0004" data-entity-2="ent0003" data-link-type="dependency" data-source-line="20" id="lnk16"><path d="M564.22,304.8486 C545.12,313.3786 527.55,325.4686 515.68,342.5986 C502.19,362.0586 513.9812,375.8072 537.2412,387.8672" fill="none" id="Permission-to-Running" style="stroke:#465868;stroke-width:1.3;"/><polygon fill="#465868" points="541.68,390.1686,535.5313,382.4749,537.2412,387.8672,531.8489,389.577,541.68,390.1686" style="stroke:#465868;stroke-width:1.3;stroke-linejoin:miter;stroke-miterlimit:10;"/><text fill="#000000" font-family="sans-serif" font-size="14" lengthAdjust="spacing" textLength="254.4883" x="516.68" y="356.7305">validated response on original request ID</text></g><!--link Running to Completed--><g class="link" data-entity-1="ent0003" data-entity-2="ent0006" data-link-type="dependency" data-source-line="21" id="lnk17"><path d="M710.41,426.9386 C741.81,434.5886 774.56,448.3086 796.68,472.7886 C863.08,546.2986 770.29,621.5886 840.68,691.2886 C891.16,741.2686 928.77,704.0086 997.68,721.2886 C1010.16,724.4186 1018.4893,726.6771 1031.2393,730.4871" fill="none" id="Running-to-Completed" style="stroke:#465868;stroke-width:1.3;"/><polygon fill="#465868" points="1036.03,731.9186,1028.552,725.5093,1031.2393,730.4871,1026.2615,733.1744,1036.03,731.9186" style="stroke:#465868;stroke-width:1.3;stroke-linejoin:miter;stroke-miterlimit:10;"/><text fill="#000000" font-family="sans-serif" font-size="14" lengthAdjust="spacing" textLength="154.082" x="823.16" y="571.1705">original prompt response</text></g><!--link Permission to Cancelling--><g class="link" data-entity-1="ent0004" data-entity-2="ent0005" data-link-type="dependency" data-source-line="22" id="lnk18"><path d="M775.94,308.9286 C781.94,310.1986 787.88,311.4286 793.68,312.5986 C870.62,328.0186 905.05,295.3186 967.68,342.5986 C1033.86,392.5486 1060.1452,489.1766 1069.5052,535.7666" fill="none" id="Permission-to-Cancelling" style="stroke:#465868;stroke-width:1.3;"/><polygon fill="#465868" points="1070.49,540.6686,1072.6389,531.0571,1069.5052,535.7666,1064.7957,532.6328,1070.49,540.6686" style="stroke:#465868;stroke-width:1.3;stroke-linejoin:miter;stroke-miterlimit:10;"/><text fill="#000000" font-family="sans-serif" font-size="14" lengthAdjust="spacing" textLength="28.7998" x="1039.92" y="421.8205">Stop</text></g><!--link Running to Cancelling--><g class="link" data-entity-1="ent0003" data-entity-2="ent0005" data-link-type="dependency" data-source-line="23" id="lnk19"><path d="M710.48,437.9686 C751.75,447.6286 800.91,459.8786 844.68,472.7886 C906.96,491.1686 922.65,496.0086 982.68,520.7886 C997.1,526.7386 1007.9667,531.656 1021.9367,538.396" fill="none" id="Running-to-Cancelling" style="stroke:#465868;stroke-width:1.3;"/><polygon fill="#465868" points="1026.44,540.5686,1020.0722,533.0552,1021.9367,538.396,1016.596,540.2605,1026.44,540.5686" style="stroke:#465868;stroke-width:1.3;stroke-linejoin:miter;stroke-miterlimit:10;"/><text fill="#000000" font-family="sans-serif" font-size="14" lengthAdjust="spacing" textLength="28.7998" x="903.87" y="486.9205">Stop</text></g><!--link Cancelling to Cancelled--><g class="link" data-entity-1="ent0005" data-entity-2="ent0007" data-link-type="dependency" data-source-line="24" id="lnk20"><path d="M1114.01,591.3886 C1127.19,598.6786 1142.21,606.1086 1156.68,611.2886 C1222.33,634.7786 1266.08,587.6786 1310.68,641.2886 C1354.53,693.9886 1336.0539,778.087 1322.7139,820.697" fill="none" id="Cancelling-to-Cancelled" style="stroke:#465868;stroke-width:1.3;"/><polygon fill="#465868" points="1321.22,825.4686,1327.7262,818.0748,1322.7139,820.697,1320.0917,815.6846,1321.22,825.4686" style="stroke:#465868;stroke-width:1.3;stroke-linejoin:miter;stroke-miterlimit:10;"/><text fill="#000000" font-family="sans-serif" font-size="14" lengthAdjust="spacing" textLength="229.1885" x="1334.64" y="671.4205">original prompt response = cancelled</text></g><!--link Cancelling to Completed--><g class="link" data-entity-1="ent0005" data-entity-2="ent0006" data-link-type="dependency" data-source-line="25" id="lnk21"><path d="M1079.62,591.1586 C1087.02,627.2886 1099.9172,690.2602 1107.4672,727.1402" fill="none" id="Cancelling-to-Completed" style="stroke:#465868;stroke-width:1.3;"/><polygon fill="#465868" points="1108.47,732.0386,1110.5837,722.4193,1107.4672,727.1402,1102.7462,724.0237,1108.47,732.0386" style="stroke:#465868;stroke-width:1.3;stroke-linejoin:miter;stroke-miterlimit:10;"/><text fill="#000000" font-family="sans-serif" font-size="14" lengthAdjust="spacing" textLength="201.5576" x="1100.95" y="671.4205">completion already won the race</text></g><!--link Running to Failed--><g class="link" data-entity-1="ent0003" data-entity-2="ent0008" data-link-type="dependency" data-source-line="26" id="lnk22"><path d="M614.33,443.0386 C612.72,457.2586 612.05,475.2086 615.68,490.7886 C629.05,548.1886 661.4382,604.2079 682.4382,636.7379" fill="none" id="Running-to-Failed" style="stroke:#465868;stroke-width:1.3;"/><polygon fill="#465868" points="685.15,640.9386,683.6293,631.2079,682.4382,636.7379,676.9082,635.5468,685.15,640.9386" style="stroke:#465868;stroke-width:1.3;stroke-linejoin:miter;stroke-miterlimit:10;"/><text fill="#000000" font-family="sans-serif" font-size="14" lengthAdjust="spacing" textLength="175.8408" x="616.68" y="486.9205">terminal RPC / adapter error</text></g><!--link Dispatching to Interrupted--><g class="link" data-entity-1="ent0002" data-entity-2="ent0009" data-link-type="dependency" data-source-line="27" id="lnk23"><path d="M145.21,309.9086 C160.42,349.5786 192.04,428.0686 226.68,490.7886 C278.39,584.4386 350.4515,683.215 384.9915,729.065" fill="none" id="Dispatching-to-Interrupted" style="stroke:#465868;stroke-width:1.3;"/><polygon fill="#465868" points="388,733.0586,385.7796,723.4633,384.9915,729.065,379.3898,728.2769,388,733.0586" style="stroke:#465868;stroke-width:1.3;stroke-linejoin:miter;stroke-miterlimit:10;"/><text fill="#000000" font-family="sans-serif" font-size="14" lengthAdjust="spacing" textLength="188.3096" x="227.68" y="486.9205">crash before delivery is known</text></g><!--link Running to Interrupted--><g class="link" data-entity-1="ent0003" data-entity-2="ent0009" data-link-type="dependency" data-source-line="28" id="lnk24"><path d="M599.12,443.0186 C583.52,463.5686 561.42,493.5186 543.68,520.7886 C494.61,596.2086 445.4935,685.2679 422.0535,728.7279" fill="none" id="Running-to-Interrupted" style="stroke:#465868;stroke-width:1.3;"/><polygon fill="#465868" points="419.68,733.1286,427.4729,727.1061,422.0535,728.7279,420.4317,723.3085,419.68,733.1286" style="stroke:#465868;stroke-width:1.3;stroke-linejoin:miter;stroke-miterlimit:10;"/><text fill="#000000" font-family="sans-serif" font-size="14" lengthAdjust="spacing" textLength="72.3584" x="544.68" y="571.1705">runtime lost</text></g><!--link Cancelling to Interrupted--><g class="link" data-entity-1="ent0005" data-entity-2="ent0009" data-link-type="dependency" data-source-line="29" id="lnk25"><path d="M1027.53,591.3686 C1013.31,598.2586 997.53,605.4586 982.68,611.2886 C940.67,627.7786 928.44,626.8786 885.68,641.2886 C824.25,661.9786 811.6,675.7086 748.68,691.2886 C652.89,715.0086 625.15,700.5186 528.68,721.2886 C513.67,724.5186 502.6273,727.2838 487.4873,731.6138" fill="none" id="Cancelling-to-Interrupted" style="stroke:#465868;stroke-width:1.3;"/><polygon fill="#465868" points="482.68,732.9886,492.433,734.3597,487.4873,731.6138,490.2332,726.6681,482.68,732.9886" style="stroke:#465868;stroke-width:1.3;stroke-linejoin:miter;stroke-miterlimit:10;"/><text fill="#000000" font-family="sans-serif" font-size="14" lengthAdjust="spacing" textLength="195.3711" x="886.68" y="671.4205">cancellation deadline exceeded</text></g><!--link Permission to Interrupted--><g class="link" data-entity-1="ent0004" data-entity-2="ent0009" data-link-type="dependency" data-source-line="30" id="lnk26"><path d="M564.3,304.6586 C541.61,313.1886 519.46,325.3386 502.68,342.5986 C394.32,454.0486 398.8341,657.292 404.0341,728.162" fill="none" id="Permission-to-Interrupted" style="stroke:#465868;stroke-width:1.3;"/><polygon fill="#465868" points="404.4,733.1486,407.7307,723.8801,404.0341,728.162,399.7521,724.4655,404.4,733.1486" style="stroke:#465868;stroke-width:1.3;stroke-linejoin:miter;stroke-miterlimit:10;"/><text fill="#000000" font-family="sans-serif" font-size="14" lengthAdjust="spacing" textLength="93.3926" x="429.64" y="486.9205">connection lost</text></g><!--link Interrupted to Recovering--><g class="link" data-entity-1="ent0009" data-entity-2="ent0010" data-link-type="dependency" data-source-line="31" id="lnk27"><path d="M439,783.6586 C482.03,815.8486 553.7764,869.5135 597.6464,902.3335" fill="none" id="Interrupted-to-Recovering" style="stroke:#465868;stroke-width:1.3;"/><polygon fill="#465868" points="601.65,905.3286,596.8396,896.7344,597.6464,902.3335,592.0474,903.1402,601.65,905.3286" style="stroke:#465868;stroke-width:1.3;stroke-linejoin:miter;stroke-miterlimit:10;"/><text fill="#000000" font-family="sans-serif" font-size="14" lengthAdjust="spacing" textLength="318.3154" x="562.61" y="855.8105">fence old generation; confirm old container stopped</text></g><!--link Recovering to *end*--><g class="link" data-entity-1="ent0010" data-entity-2="ent0028" data-link-type="dependency" data-source-line="32" id="lnk29"><path d="M650,958.3186 C663.03,978.9886 684.23,1007.0286 710.68,1021.8786 C787.53,1065.0086 822.1,1027.1386 906.68,1051.8786 C948.83,1064.2086 991.2133,1085.9276 1010.8233,1096.5476" fill="none" id="Recovering-to-*end*" style="stroke:#465868;stroke-width:1.3;"/><polygon fill="#465868" points="1015.22,1098.9286,1009.2109,1091.1254,1010.8233,1096.5476,1005.4012,1098.1601,1015.22,1098.9286" style="stroke:#465868;stroke-width:1.3;stroke-linejoin:miter;stroke-miterlimit:10;"/><text fill="#000000" font-family="sans-serif" font-size="14" lengthAdjust="spacing" textLength="233.4609" x="711.68" y="1002.0105">resume/load if supported; release slot</text><text fill="#000000" font-family="sans-serif" font-size="14" lengthAdjust="spacing" textLength="181.3096" x="737.7557" y="1018.1091">require explicit next message</text></g><!--link Completed to *end*--><g class="link" data-entity-1="ent0006" data-entity-2="ent0028" data-link-type="dependency" data-source-line="33" id="lnk30"><path d="M1107.13,784.8286 C1089.11,854.6386 1040.5402,1042.7574 1028.5502,1089.1874" fill="none" id="Completed-to-*end*" style="stroke:#465868;stroke-width:1.3;"/><polygon fill="#465868" points="1027.3,1094.0286,1033.4233,1086.3146,1028.5502,1089.1874,1025.6774,1084.3144,1027.3,1094.0286" style="stroke:#465868;stroke-width:1.3;stroke-linejoin:miter;stroke-miterlimit:10;"/></g><!--link Cancelled to *end*--><g class="link" data-entity-1="ent0007" data-entity-2="ent0028" data-link-type="dependency" data-source-line="34" id="lnk31"><path d="M1284.8,876.1186 C1221.28,931.8086 1072.2398,1062.4726 1036.1598,1094.1026" fill="none" id="Cancelled-to-*end*" style="stroke:#465868;stroke-width:1.3;"/><polygon fill="#465868" points="1032.4,1097.3986,1041.8045,1094.4735,1036.1598,1094.1026,1036.5308,1088.4579,1032.4,1097.3986" style="stroke:#465868;stroke-width:1.3;stroke-linejoin:miter;stroke-miterlimit:10;"/></g><!--link Failed to *end*--><g class="link" data-entity-1="ent0008" data-entity-2="ent0028" data-link-type="dependency" data-source-line="35" id="lnk32"><path d="M730.81,674.0186 C751.66,678.8386 780.4,685.4686 805.68,691.2886 C863.89,704.6686 894.43,679.0686 936.68,721.2886 C1045.48,829.9986 1031.3844,1039.3041 1026.3644,1088.8141" fill="none" id="Failed-to-*end*" style="stroke:#465868;stroke-width:1.3;"/><polygon fill="#465868" points="1025.86,1093.7886,1030.7475,1085.238,1026.3644,1088.8141,1022.7883,1084.431,1025.86,1093.7886" style="stroke:#465868;stroke-width:1.3;stroke-linejoin:miter;stroke-miterlimit:10;"/></g><?plantuml-src VLRBSYir4DtFLpIvEy39uYw0fA0gE75L5a0gB5WGYf9dshPkDD9SFU9unqVmXNm9foMDP-mKxERHBtMVSrfVQDkQr3757VTygLDlcgYZOLfwjOa7-kUlloacRydjBVkmqmFjTTnfIwpQ7UdWZ8hSaTgoZHGu1Eri4zr0qT7QnUXwwhJdDiht9aHOqyLjs_80jsVRmmE-z1LroQir4dSw32eYDfoSxov81HhjH_-xQgFjzjaEx1Sv_QAcdzMgsiy9sKkKcTSOw2bPcuCuop2E-fN7GrmDtlL3p9xLRFJwJUc8LzeuJx2AhdM6K4QlisTsUJo-ZbvBPLisEDRdn27Mcif78z4-h5QhZykxepco6yvDAfsG-f8o5AIxdbMecOw6zE7-szN7--LfGdEQISnMo_llxhyPpLPAZpRbyTpWmKRsFia0w8ewDkYIFr12F1-LBbNCZSvEyeJouI5d72VaauswvsSRLC_KExm6OE1s-JYQt93bFM6ix5KScpf5QfhVl_o35eiV9coC3_dhRDPqFM6gTNslR4UjKKZVaSCPchcj-DPfmw_E2ZNPY88S_6sRl1Ui5tWqex4uJZE7xmYZ6kFF2H_DpEuqtwiokijyyXm6PmEJmDdhhRRg21rwk3j9Em7WUh8jvHtZdEUSuUwQVWMYJYE--plxCZFutvJqFRMZsJl_MSbjUPRAb06kkmFjyGn58gymddbX5Q3N5EKualJfSGbGgavXz9u0GUVV3NIEJUJpAknepM0lJsZMWLuiXECatQbZ1IqP5-BvWSvIb9yPk4YXEjWnyLlBtA4PPxCuytNM5haiYUP_CrecDbtJXf68dEbcJBcH41lj-_mTpy9Hz4PqOq3sMG299pmIf8VKyvLngYEzeP26mNcalC4V0ws1B1eNHOgoeE8iWz6jZc3fMwIguiqqrXgvcO0oVgaZ75yRww0HWD0kajlCPPFeyRssofm23ygBicoyR1SEUWle380V-7C9lrzy1snWgCCE0Qvwr9yyzXjOYw7tWPHClkuRBVrLkU7X1ix0dVRq4vHef9jdsO0XBpwN8krdygzexTq-iBzi6BeYXpaxqGGK1Ayx08TGOgitkiqp-rhUyAscl3foQ53Qov6U69iMosb05iazTII8C1w9LcnBtISeH2Kg1DVgB2_BsplwvDPJByr1F8NgeZWA3FGlnmOe4roD5aX3gS4QtXu3HHLUnBi8C6qoBzCWGXPeZOOLb7Qk1n1fI6jJJ_sVFPjX7d5_vbU1Bs1Zepa8LCLDZNg3Umf-ArJTh_KskIIdigKJbR4yk7oX-0HY1K8uMJSPFPu70v7f95WB57EupC133ezsInkW9QXUjiRITVosA5ljrHaG9aYtX5ZP2vSEZNOb-8wKGBzinpArKhoC8L-LkDqvINRQWNfZWjLirH7zM30cUwpA0_8YMiSHjp0MD8Mq3gtNQ_OtPNX2V6rJET3juqCvwa6g2qVm1vcm3CUc7gwXu51wvXThiBwZYy0n2delCa3g_iuwKGC2p791iMtczGIeqc2HrzhnJCr11Wzy86-2-MclCY-hUETONYk3I7N4a-eB8NFBLTx5UJX0OjsveLnET-gLAvqXx2DSHCUoWoyTFb0Ug4IxAyk0i3bCNi79n93l2AI4dPbqKM0_bBpvPhp6xQM3saop_1S0?></g></svg>